<mxfile host="Electron" agent="Mozilla/5.0 (Windows NT 10.0; Win64; x64) AppleWebKit/537.36 (KHTML, like Gecko) draw.io/24.7.17 Chrome/128.0.6613.36 Electron/32.0.1 Safari/537.36" version="24.7.17" pages="3">
  <diagram name="Login" id="wDEZvBjx5TSSo-2GFjHn">
    <mxGraphModel dx="1750" dy="1035" grid="1" gridSize="10" guides="1" tooltips="1" connect="1" arrows="1" fold="1" page="1" pageScale="1" pageWidth="827" pageHeight="1169" math="0" shadow="0">
      <root>
        <mxCell id="0" />
        <mxCell id="1" parent="0" />
        <mxCell id="t8PpagDGVLrnuFvlZs6p-5" value="" style="edgeStyle=orthogonalEdgeStyle;rounded=0;orthogonalLoop=1;jettySize=auto;html=1;" edge="1" parent="1" source="t8PpagDGVLrnuFvlZs6p-2" target="t8PpagDGVLrnuFvlZs6p-4">
          <mxGeometry relative="1" as="geometry" />
        </mxCell>
        <mxCell id="t8PpagDGVLrnuFvlZs6p-2" value="START" style="strokeWidth=2;html=1;shape=mxgraph.flowchart.terminator;whiteSpace=wrap;" vertex="1" parent="1">
          <mxGeometry x="210" y="60" width="100" height="60" as="geometry" />
        </mxCell>
        <mxCell id="t8PpagDGVLrnuFvlZs6p-3" value="Login" style="text;html=1;align=center;verticalAlign=middle;whiteSpace=wrap;rounded=0;" vertex="1" parent="1">
          <mxGeometry x="230" y="30" width="60" height="30" as="geometry" />
        </mxCell>
        <mxCell id="t8PpagDGVLrnuFvlZs6p-7" value="" style="edgeStyle=orthogonalEdgeStyle;rounded=0;orthogonalLoop=1;jettySize=auto;html=1;" edge="1" parent="1" source="t8PpagDGVLrnuFvlZs6p-4" target="t8PpagDGVLrnuFvlZs6p-6">
          <mxGeometry relative="1" as="geometry" />
        </mxCell>
        <mxCell id="t8PpagDGVLrnuFvlZs6p-4" value="Show login screen to user" style="rounded=1;whiteSpace=wrap;html=1;strokeWidth=2;" vertex="1" parent="1">
          <mxGeometry x="200" y="150" width="120" height="60" as="geometry" />
        </mxCell>
        <mxCell id="t8PpagDGVLrnuFvlZs6p-9" value="" style="edgeStyle=orthogonalEdgeStyle;rounded=0;orthogonalLoop=1;jettySize=auto;html=1;" edge="1" parent="1" source="t8PpagDGVLrnuFvlZs6p-6" target="t8PpagDGVLrnuFvlZs6p-8">
          <mxGeometry relative="1" as="geometry" />
        </mxCell>
        <mxCell id="t8PpagDGVLrnuFvlZs6p-6" value="Wait for user to press &quot;Login&quot;" style="whiteSpace=wrap;html=1;rounded=1;strokeWidth=2;" vertex="1" parent="1">
          <mxGeometry x="200" y="240" width="120" height="60" as="geometry" />
        </mxCell>
        <mxCell id="t8PpagDGVLrnuFvlZs6p-18" value="" style="edgeStyle=orthogonalEdgeStyle;rounded=0;orthogonalLoop=1;jettySize=auto;html=1;" edge="1" parent="1" source="t8PpagDGVLrnuFvlZs6p-8" target="t8PpagDGVLrnuFvlZs6p-17">
          <mxGeometry relative="1" as="geometry" />
        </mxCell>
        <mxCell id="t8PpagDGVLrnuFvlZs6p-8" value="&lt;font style=&quot;font-size: 11px;&quot;&gt;&lt;b&gt;inputUsername &lt;/b&gt;= username tb&lt;/font&gt;&lt;div style=&quot;line-height: 120%; font-size: 11px;&quot;&gt;&lt;font style=&quot;font-size: 11px;&quot;&gt;&lt;br&gt;&lt;/font&gt;&lt;/div&gt;&lt;div style=&quot;line-height: 120%; font-size: 11px;&quot;&gt;&lt;font style=&quot;font-size: 11px;&quot;&gt;&lt;b&gt;inputPass &lt;/b&gt;= pass tb&lt;/font&gt;&lt;/div&gt;" style="shape=parallelogram;perimeter=parallelogramPerimeter;whiteSpace=wrap;html=1;fixedSize=1;rounded=1;strokeWidth=2;size=13.75;" vertex="1" parent="1">
          <mxGeometry x="176.25" y="340" width="167.5" height="70" as="geometry" />
        </mxCell>
        <mxCell id="t8PpagDGVLrnuFvlZs6p-10" value="tb = textbox" style="text;html=1;align=center;verticalAlign=middle;whiteSpace=wrap;rounded=0;" vertex="1" parent="1">
          <mxGeometry x="330" y="360" width="60" height="30" as="geometry" />
        </mxCell>
        <mxCell id="t8PpagDGVLrnuFvlZs6p-21" value="" style="edgeStyle=orthogonalEdgeStyle;rounded=0;orthogonalLoop=1;jettySize=auto;html=1;" edge="1" parent="1" source="t8PpagDGVLrnuFvlZs6p-17" target="t8PpagDGVLrnuFvlZs6p-20">
          <mxGeometry relative="1" as="geometry" />
        </mxCell>
        <mxCell id="t8PpagDGVLrnuFvlZs6p-23" value="False" style="edgeLabel;html=1;align=center;verticalAlign=middle;resizable=0;points=[];" vertex="1" connectable="0" parent="t8PpagDGVLrnuFvlZs6p-21">
          <mxGeometry x="-0.5832" relative="1" as="geometry">
            <mxPoint as="offset" />
          </mxGeometry>
        </mxCell>
        <mxCell id="t8PpagDGVLrnuFvlZs6p-25" value="" style="edgeStyle=orthogonalEdgeStyle;rounded=0;orthogonalLoop=1;jettySize=auto;html=1;" edge="1" parent="1" source="t8PpagDGVLrnuFvlZs6p-17" target="t8PpagDGVLrnuFvlZs6p-24">
          <mxGeometry relative="1" as="geometry" />
        </mxCell>
        <mxCell id="t8PpagDGVLrnuFvlZs6p-26" value="True" style="edgeLabel;html=1;align=center;verticalAlign=middle;resizable=0;points=[];" vertex="1" connectable="0" parent="t8PpagDGVLrnuFvlZs6p-25">
          <mxGeometry x="-0.0054" y="1" relative="1" as="geometry">
            <mxPoint as="offset" />
          </mxGeometry>
        </mxCell>
        <mxCell id="t8PpagDGVLrnuFvlZs6p-17" value="&lt;b&gt;inputUsername &lt;/b&gt;== any username in db?" style="rhombus;whiteSpace=wrap;html=1;rounded=1;strokeWidth=2;" vertex="1" parent="1">
          <mxGeometry x="185" y="480" width="150" height="105" as="geometry" />
        </mxCell>
        <mxCell id="t8PpagDGVLrnuFvlZs6p-22" style="edgeStyle=orthogonalEdgeStyle;rounded=0;orthogonalLoop=1;jettySize=auto;html=1;entryX=0;entryY=0.5;entryDx=0;entryDy=0;" edge="1" parent="1" source="t8PpagDGVLrnuFvlZs6p-20" target="t8PpagDGVLrnuFvlZs6p-4">
          <mxGeometry relative="1" as="geometry">
            <Array as="points">
              <mxPoint x="90" y="180" />
            </Array>
          </mxGeometry>
        </mxCell>
        <mxCell id="t8PpagDGVLrnuFvlZs6p-20" value="Show &quot;Invalid credentials&quot; above both tbs" style="whiteSpace=wrap;html=1;rounded=1;strokeWidth=2;" vertex="1" parent="1">
          <mxGeometry x="30" y="345" width="120" height="60" as="geometry" />
        </mxCell>
        <mxCell id="t8PpagDGVLrnuFvlZs6p-28" value="" style="edgeStyle=orthogonalEdgeStyle;rounded=0;orthogonalLoop=1;jettySize=auto;html=1;" edge="1" parent="1" source="t8PpagDGVLrnuFvlZs6p-24" target="t8PpagDGVLrnuFvlZs6p-27">
          <mxGeometry relative="1" as="geometry" />
        </mxCell>
        <mxCell id="t8PpagDGVLrnuFvlZs6p-24" value="Hash &lt;b&gt;inputPass&lt;/b&gt;&amp;nbsp;using chosen hashing algorithm" style="whiteSpace=wrap;html=1;rounded=1;strokeWidth=2;" vertex="1" parent="1">
          <mxGeometry x="200" y="670" width="120" height="60" as="geometry" />
        </mxCell>
        <mxCell id="t8PpagDGVLrnuFvlZs6p-29" style="edgeStyle=orthogonalEdgeStyle;rounded=0;orthogonalLoop=1;jettySize=auto;html=1;" edge="1" parent="1" source="t8PpagDGVLrnuFvlZs6p-27" target="t8PpagDGVLrnuFvlZs6p-20">
          <mxGeometry relative="1" as="geometry" />
        </mxCell>
        <mxCell id="t8PpagDGVLrnuFvlZs6p-30" value="False" style="edgeLabel;html=1;align=center;verticalAlign=middle;resizable=0;points=[];" vertex="1" connectable="0" parent="t8PpagDGVLrnuFvlZs6p-29">
          <mxGeometry x="-0.8462" y="-3" relative="1" as="geometry">
            <mxPoint y="3" as="offset" />
          </mxGeometry>
        </mxCell>
        <mxCell id="t8PpagDGVLrnuFvlZs6p-32" value="" style="edgeStyle=orthogonalEdgeStyle;rounded=0;orthogonalLoop=1;jettySize=auto;html=1;" edge="1" parent="1" source="t8PpagDGVLrnuFvlZs6p-27" target="t8PpagDGVLrnuFvlZs6p-31">
          <mxGeometry relative="1" as="geometry" />
        </mxCell>
        <mxCell id="t8PpagDGVLrnuFvlZs6p-27" value="&lt;b&gt;inputPass &lt;/b&gt;== hashed password in same db entry as username?&lt;b&gt;&amp;nbsp;&lt;/b&gt;" style="rhombus;whiteSpace=wrap;html=1;rounded=1;strokeWidth=2;" vertex="1" parent="1">
          <mxGeometry x="176.25" y="790" width="167.5" height="120" as="geometry" />
        </mxCell>
        <mxCell id="t8PpagDGVLrnuFvlZs6p-31" value="&lt;div&gt;Login success!&lt;/div&gt;Redirect user to dashboard" style="whiteSpace=wrap;html=1;rounded=1;strokeWidth=2;" vertex="1" parent="1">
          <mxGeometry x="200" y="950" width="120" height="60" as="geometry" />
        </mxCell>
        <mxCell id="t8PpagDGVLrnuFvlZs6p-33" value="END" style="strokeWidth=2;html=1;shape=mxgraph.flowchart.terminator;whiteSpace=wrap;" vertex="1" parent="1">
          <mxGeometry x="210" y="1070" width="100" height="60" as="geometry" />
        </mxCell>
        <mxCell id="t8PpagDGVLrnuFvlZs6p-34" style="edgeStyle=orthogonalEdgeStyle;rounded=0;orthogonalLoop=1;jettySize=auto;html=1;entryX=0.5;entryY=0;entryDx=0;entryDy=0;entryPerimeter=0;" edge="1" parent="1" source="t8PpagDGVLrnuFvlZs6p-31" target="t8PpagDGVLrnuFvlZs6p-33">
          <mxGeometry relative="1" as="geometry" />
        </mxCell>
      </root>
    </mxGraphModel>
  </diagram>
  <diagram id="BTWEKlgv_lYgv1bxt-cJ" name="Invoice">
    <mxGraphModel dx="1480" dy="866" grid="1" gridSize="10" guides="1" tooltips="1" connect="1" arrows="1" fold="1" page="1" pageScale="1" pageWidth="827" pageHeight="1169" math="0" shadow="0">
      <root>
        <mxCell id="0" />
        <mxCell id="1" parent="0" />
        <mxCell id="dumsNPepDbAG_M0nWqGC-5" value="" style="edgeStyle=orthogonalEdgeStyle;rounded=0;orthogonalLoop=1;jettySize=auto;html=1;" edge="1" parent="1" source="dumsNPepDbAG_M0nWqGC-1" target="dumsNPepDbAG_M0nWqGC-4">
          <mxGeometry relative="1" as="geometry" />
        </mxCell>
        <mxCell id="dumsNPepDbAG_M0nWqGC-1" value="START" style="strokeWidth=2;html=1;shape=mxgraph.flowchart.start_2;whiteSpace=wrap;" vertex="1" parent="1">
          <mxGeometry x="180" y="30" width="100" height="60" as="geometry" />
        </mxCell>
        <mxCell id="dumsNPepDbAG_M0nWqGC-2" value="Invoice Generation" style="text;html=1;align=center;verticalAlign=middle;resizable=0;points=[];autosize=1;strokeColor=none;fillColor=none;" vertex="1" parent="1">
          <mxGeometry x="170" width="120" height="30" as="geometry" />
        </mxCell>
        <mxCell id="dumsNPepDbAG_M0nWqGC-3" value="From Finance Dashboard" style="text;html=1;align=center;verticalAlign=middle;resizable=0;points=[];autosize=1;strokeColor=none;fillColor=none;" vertex="1" parent="1">
          <mxGeometry x="275" y="45" width="160" height="30" as="geometry" />
        </mxCell>
        <mxCell id="dumsNPepDbAG_M0nWqGC-7" value="" style="edgeStyle=orthogonalEdgeStyle;rounded=0;orthogonalLoop=1;jettySize=auto;html=1;" edge="1" parent="1" source="dumsNPepDbAG_M0nWqGC-4" target="dumsNPepDbAG_M0nWqGC-6">
          <mxGeometry relative="1" as="geometry" />
        </mxCell>
        <mxCell id="dumsNPepDbAG_M0nWqGC-4" value="Click &quot;Add Invoice&quot;" style="shape=parallelogram;perimeter=parallelogramPerimeter;whiteSpace=wrap;html=1;fixedSize=1;strokeWidth=2;" vertex="1" parent="1">
          <mxGeometry x="170" y="130" width="120" height="60" as="geometry" />
        </mxCell>
        <mxCell id="dumsNPepDbAG_M0nWqGC-10" value="" style="edgeStyle=orthogonalEdgeStyle;rounded=0;orthogonalLoop=1;jettySize=auto;html=1;" edge="1" parent="1" source="dumsNPepDbAG_M0nWqGC-6" target="dumsNPepDbAG_M0nWqGC-9">
          <mxGeometry relative="1" as="geometry" />
        </mxCell>
        <mxCell id="dumsNPepDbAG_M0nWqGC-6" value="Bring user to Invoice Creation Screen" style="whiteSpace=wrap;html=1;strokeWidth=2;" vertex="1" parent="1">
          <mxGeometry x="170" y="230" width="120" height="60" as="geometry" />
        </mxCell>
        <mxCell id="dumsNPepDbAG_M0nWqGC-12" value="" style="edgeStyle=orthogonalEdgeStyle;rounded=0;orthogonalLoop=1;jettySize=auto;html=1;" edge="1" parent="1" source="dumsNPepDbAG_M0nWqGC-9" target="dumsNPepDbAG_M0nWqGC-11">
          <mxGeometry relative="1" as="geometry" />
        </mxCell>
        <mxCell id="dumsNPepDbAG_M0nWqGC-9" value="costInput = &quot;cost&quot; tb&lt;div&gt;&lt;br&gt;&lt;div&gt;descriptionInput = &quot;description&quot; tb&lt;/div&gt;&lt;/div&gt;" style="shape=parallelogram;perimeter=parallelogramPerimeter;whiteSpace=wrap;html=1;fixedSize=1;strokeWidth=2;" vertex="1" parent="1">
          <mxGeometry x="152.5" y="330" width="155" height="90" as="geometry" />
        </mxCell>
        <mxCell id="dumsNPepDbAG_M0nWqGC-14" value="" style="edgeStyle=orthogonalEdgeStyle;rounded=0;orthogonalLoop=1;jettySize=auto;html=1;" edge="1" parent="1" source="dumsNPepDbAG_M0nWqGC-11" target="dumsNPepDbAG_M0nWqGC-13">
          <mxGeometry relative="1" as="geometry" />
        </mxCell>
        <mxCell id="dumsNPepDbAG_M0nWqGC-16" value="False" style="edgeLabel;html=1;align=center;verticalAlign=middle;resizable=0;points=[];" vertex="1" connectable="0" parent="dumsNPepDbAG_M0nWqGC-14">
          <mxGeometry x="-0.4257" y="2" relative="1" as="geometry">
            <mxPoint y="2" as="offset" />
          </mxGeometry>
        </mxCell>
        <mxCell id="dumsNPepDbAG_M0nWqGC-18" value="" style="edgeStyle=orthogonalEdgeStyle;rounded=0;orthogonalLoop=1;jettySize=auto;html=1;" edge="1" parent="1" source="dumsNPepDbAG_M0nWqGC-11" target="dumsNPepDbAG_M0nWqGC-17">
          <mxGeometry relative="1" as="geometry" />
        </mxCell>
        <mxCell id="dumsNPepDbAG_M0nWqGC-11" value="Both values filled in?" style="rhombus;whiteSpace=wrap;html=1;strokeWidth=2;" vertex="1" parent="1">
          <mxGeometry x="190" y="450" width="80" height="80" as="geometry" />
        </mxCell>
        <mxCell id="dumsNPepDbAG_M0nWqGC-15" style="edgeStyle=orthogonalEdgeStyle;rounded=0;orthogonalLoop=1;jettySize=auto;html=1;entryX=1;entryY=0.5;entryDx=0;entryDy=0;" edge="1" parent="1" source="dumsNPepDbAG_M0nWqGC-13" target="dumsNPepDbAG_M0nWqGC-9">
          <mxGeometry relative="1" as="geometry" />
        </mxCell>
        <mxCell id="dumsNPepDbAG_M0nWqGC-13" value="Show error above missing value" style="whiteSpace=wrap;html=1;strokeWidth=2;" vertex="1" parent="1">
          <mxGeometry x="370" y="345" width="120" height="60" as="geometry" />
        </mxCell>
        <mxCell id="dumsNPepDbAG_M0nWqGC-20" value="" style="edgeStyle=orthogonalEdgeStyle;rounded=0;orthogonalLoop=1;jettySize=auto;html=1;" edge="1" parent="1" source="dumsNPepDbAG_M0nWqGC-17" target="dumsNPepDbAG_M0nWqGC-19">
          <mxGeometry relative="1" as="geometry" />
        </mxCell>
        <mxCell id="dumsNPepDbAG_M0nWqGC-17" value="Add Invoice to DB" style="whiteSpace=wrap;html=1;strokeWidth=2;" vertex="1" parent="1">
          <mxGeometry x="170" y="560" width="120" height="60" as="geometry" />
        </mxCell>
        <mxCell id="dumsNPepDbAG_M0nWqGC-22" value="" style="edgeStyle=orthogonalEdgeStyle;rounded=0;orthogonalLoop=1;jettySize=auto;html=1;" edge="1" parent="1" source="dumsNPepDbAG_M0nWqGC-19" target="dumsNPepDbAG_M0nWqGC-21">
          <mxGeometry relative="1" as="geometry" />
        </mxCell>
        <mxCell id="dumsNPepDbAG_M0nWqGC-19" value="Redirect to Finance Dashboard" style="whiteSpace=wrap;html=1;strokeWidth=2;" vertex="1" parent="1">
          <mxGeometry x="170" y="680" width="120" height="60" as="geometry" />
        </mxCell>
        <mxCell id="dumsNPepDbAG_M0nWqGC-21" value="END" style="ellipse;whiteSpace=wrap;html=1;strokeWidth=2;" vertex="1" parent="1">
          <mxGeometry x="190" y="790" width="80" height="60" as="geometry" />
        </mxCell>
      </root>
    </mxGraphModel>
  </diagram>
  <diagram id="7CJ8LHJPdr58umKfk_C1" name="Email">
    <mxGraphModel dx="2899" dy="1212" grid="1" gridSize="10" guides="1" tooltips="1" connect="1" arrows="1" fold="1" page="1" pageScale="1" pageWidth="827" pageHeight="1169" math="0" shadow="0">
      <root>
        <mxCell id="0" />
        <mxCell id="1" parent="0" />
        <mxCell id="dnXUVzxNcDBPzsnKb-ND-4" value="" style="edgeStyle=orthogonalEdgeStyle;rounded=0;orthogonalLoop=1;jettySize=auto;html=1;" edge="1" parent="1" source="dnXUVzxNcDBPzsnKb-ND-1" target="dnXUVzxNcDBPzsnKb-ND-3">
          <mxGeometry relative="1" as="geometry" />
        </mxCell>
        <mxCell id="dnXUVzxNcDBPzsnKb-ND-1" value="START" style="strokeWidth=2;html=1;shape=mxgraph.flowchart.start_1;whiteSpace=wrap;" vertex="1" parent="1">
          <mxGeometry x="140" y="30" width="100" height="60" as="geometry" />
        </mxCell>
        <mxCell id="dnXUVzxNcDBPzsnKb-ND-2" value="From Maintenence Dashboard" style="text;html=1;align=center;verticalAlign=middle;resizable=0;points=[];autosize=1;strokeColor=none;fillColor=none;" vertex="1" parent="1">
          <mxGeometry x="250" y="30" width="190" height="30" as="geometry" />
        </mxCell>
        <mxCell id="dnXUVzxNcDBPzsnKb-ND-6" value="" style="edgeStyle=orthogonalEdgeStyle;rounded=0;orthogonalLoop=1;jettySize=auto;html=1;" edge="1" parent="1" source="dnXUVzxNcDBPzsnKb-ND-3" target="dnXUVzxNcDBPzsnKb-ND-5">
          <mxGeometry relative="1" as="geometry" />
        </mxCell>
        <mxCell id="dnXUVzxNcDBPzsnKb-ND-3" value="Click &quot;Add Service Request&quot;" style="shape=parallelogram;perimeter=parallelogramPerimeter;whiteSpace=wrap;html=1;fixedSize=1;strokeWidth=2;" vertex="1" parent="1">
          <mxGeometry x="130" y="140" width="120" height="60" as="geometry" />
        </mxCell>
        <mxCell id="dnXUVzxNcDBPzsnKb-ND-8" value="" style="edgeStyle=orthogonalEdgeStyle;rounded=0;orthogonalLoop=1;jettySize=auto;html=1;" edge="1" parent="1" source="dnXUVzxNcDBPzsnKb-ND-5" target="dnXUVzxNcDBPzsnKb-ND-7">
          <mxGeometry relative="1" as="geometry" />
        </mxCell>
        <mxCell id="dnXUVzxNcDBPzsnKb-ND-5" value="Redirect user to Service Request Creation Screen" style="whiteSpace=wrap;html=1;strokeWidth=2;" vertex="1" parent="1">
          <mxGeometry x="130" y="250" width="120" height="60" as="geometry" />
        </mxCell>
        <mxCell id="dnXUVzxNcDBPzsnKb-ND-10" value="" style="edgeStyle=orthogonalEdgeStyle;rounded=0;orthogonalLoop=1;jettySize=auto;html=1;" edge="1" parent="1" source="dnXUVzxNcDBPzsnKb-ND-7" target="dnXUVzxNcDBPzsnKb-ND-9">
          <mxGeometry relative="1" as="geometry" />
        </mxCell>
        <mxCell id="dnXUVzxNcDBPzsnKb-ND-7" value="contentInput = content tb" style="shape=parallelogram;perimeter=parallelogramPerimeter;whiteSpace=wrap;html=1;fixedSize=1;strokeWidth=2;" vertex="1" parent="1">
          <mxGeometry x="130" y="360" width="120" height="60" as="geometry" />
        </mxCell>
        <mxCell id="dnXUVzxNcDBPzsnKb-ND-12" value="" style="edgeStyle=orthogonalEdgeStyle;rounded=0;orthogonalLoop=1;jettySize=auto;html=1;" edge="1" parent="1" source="dnXUVzxNcDBPzsnKb-ND-9" target="dnXUVzxNcDBPzsnKb-ND-11">
          <mxGeometry relative="1" as="geometry" />
        </mxCell>
        <mxCell id="dnXUVzxNcDBPzsnKb-ND-14" value="False" style="edgeLabel;html=1;align=center;verticalAlign=middle;resizable=0;points=[];" vertex="1" connectable="0" parent="dnXUVzxNcDBPzsnKb-ND-12">
          <mxGeometry x="-0.4287" relative="1" as="geometry">
            <mxPoint as="offset" />
          </mxGeometry>
        </mxCell>
        <mxCell id="dnXUVzxNcDBPzsnKb-ND-16" value="" style="edgeStyle=orthogonalEdgeStyle;rounded=0;orthogonalLoop=1;jettySize=auto;html=1;" edge="1" parent="1" source="dnXUVzxNcDBPzsnKb-ND-9" target="dnXUVzxNcDBPzsnKb-ND-15">
          <mxGeometry relative="1" as="geometry" />
        </mxCell>
        <mxCell id="dnXUVzxNcDBPzsnKb-ND-17" value="True" style="edgeLabel;html=1;align=center;verticalAlign=middle;resizable=0;points=[];" vertex="1" connectable="0" parent="dnXUVzxNcDBPzsnKb-ND-16">
          <mxGeometry x="-0.0667" y="1" relative="1" as="geometry">
            <mxPoint as="offset" />
          </mxGeometry>
        </mxCell>
        <mxCell id="dnXUVzxNcDBPzsnKb-ND-9" value="contentInput != null || contentInput != &quot;&quot;" style="rhombus;whiteSpace=wrap;html=1;strokeWidth=2;" vertex="1" parent="1">
          <mxGeometry x="110" y="470" width="160" height="80" as="geometry" />
        </mxCell>
        <mxCell id="dnXUVzxNcDBPzsnKb-ND-13" style="edgeStyle=orthogonalEdgeStyle;rounded=0;orthogonalLoop=1;jettySize=auto;html=1;entryX=0;entryY=0.5;entryDx=0;entryDy=0;" edge="1" parent="1" source="dnXUVzxNcDBPzsnKb-ND-11" target="dnXUVzxNcDBPzsnKb-ND-7">
          <mxGeometry relative="1" as="geometry" />
        </mxCell>
        <mxCell id="dnXUVzxNcDBPzsnKb-ND-11" value="Show error" style="whiteSpace=wrap;html=1;strokeWidth=2;" vertex="1" parent="1">
          <mxGeometry x="-140" y="360" width="120" height="60" as="geometry" />
        </mxCell>
        <mxCell id="EIY3MpPUGyZJX4EP3KWg-2" value="" style="edgeStyle=orthogonalEdgeStyle;rounded=0;orthogonalLoop=1;jettySize=auto;html=1;" edge="1" parent="1" source="dnXUVzxNcDBPzsnKb-ND-15" target="EIY3MpPUGyZJX4EP3KWg-1">
          <mxGeometry relative="1" as="geometry" />
        </mxCell>
        <mxCell id="dnXUVzxNcDBPzsnKb-ND-15" value="Add item to db" style="whiteSpace=wrap;html=1;strokeWidth=2;" vertex="1" parent="1">
          <mxGeometry x="130" y="610" width="120" height="60" as="geometry" />
        </mxCell>
        <mxCell id="EIY3MpPUGyZJX4EP3KWg-4" value="" style="edgeStyle=orthogonalEdgeStyle;rounded=0;orthogonalLoop=1;jettySize=auto;html=1;" edge="1" parent="1" source="EIY3MpPUGyZJX4EP3KWg-1" target="EIY3MpPUGyZJX4EP3KWg-3">
          <mxGeometry relative="1" as="geometry" />
        </mxCell>
        <mxCell id="EIY3MpPUGyZJX4EP3KWg-1" value="Send E-Mail to Head of Maintenance" style="whiteSpace=wrap;html=1;strokeWidth=2;" vertex="1" parent="1">
          <mxGeometry x="130" y="720" width="120" height="60" as="geometry" />
        </mxCell>
        <mxCell id="EIY3MpPUGyZJX4EP3KWg-6" value="" style="edgeStyle=orthogonalEdgeStyle;rounded=0;orthogonalLoop=1;jettySize=auto;html=1;" edge="1" parent="1" source="EIY3MpPUGyZJX4EP3KWg-3" target="EIY3MpPUGyZJX4EP3KWg-5">
          <mxGeometry relative="1" as="geometry" />
        </mxCell>
        <mxCell id="EIY3MpPUGyZJX4EP3KWg-3" value="Redirect back to dashboard" style="whiteSpace=wrap;html=1;strokeWidth=2;" vertex="1" parent="1">
          <mxGeometry x="130" y="830" width="120" height="60" as="geometry" />
        </mxCell>
        <mxCell id="EIY3MpPUGyZJX4EP3KWg-5" value="END" style="ellipse;whiteSpace=wrap;html=1;strokeWidth=2;" vertex="1" parent="1">
          <mxGeometry x="130" y="930" width="120" height="80" as="geometry" />
        </mxCell>
      </root>
    </mxGraphModel>
  </diagram>
</mxfile>
